<svg width="36" height="41" viewBox="0 0 36 41" fill="none" xmlns="http://www.w3.org/2000/svg">
<path d="M6.86657 26.5047C4.29644 23.5846 3.00758 20.3287 3 16.7368C3 12.9324 4.4784 9.69011 7.43521 7.01003C10.3463 4.39836 13.8641 3.06169 17.9886 3C22.1053 3.04112 25.6307 4.3778 28.5648 7.01003C31.5216 9.68338 33 12.9257 33 16.7368C33 20.3355 31.7036 23.5915 29.1107 26.5047L23.3336 32.7563C23.3336 32.7563 22.4466 33.003 21.9689 32.5506C21.7642 32.3656 13.7127 23.0295 13.7127 23.0295" stroke="#35B8BE" stroke-width="5" stroke-miterlimit="3" stroke-linecap="square"/>
<path d="M12.7573 21.9806C12.3462 21.595 12.0354 21.1313 11.8476 20.6233C11.6604 20.1138 11.5983 19.5735 11.6656 19.0401C11.7339 17.909 12.2342 16.9839 13.1895 16.2434C14.122 15.5236 15.191 15.2357 16.3965 15.3386C17.1243 15.3797 17.7612 15.5442 18.3298 15.8938C18.7424 16.1018 19.1118 16.3732 19.4215 16.6958L24.2434 21.734" stroke="#35B8BE" stroke-width="5" stroke-miterlimit="3" stroke-linecap="round" stroke-linejoin="round"/>
<path d="M18.0112 37.9999L6.86658 26.5046M22.6058 33.5786L12.7574 21.9805L22.6058 33.5786Z" stroke="#35B8BE" stroke-width="5" stroke-miterlimit="3" stroke-linecap="round"/>
</svg>
